<?xml version="1.0" encoding="iso-8859-1"?>
<!-- Generator: Adobe Illustrator 19.1.0, SVG Export Plug-In . SVG Version: 6.00 Build 0)  -->
<svg version="1.1" id="Capa_1" xmlns="http://www.w3.org/2000/svg" xmlns:xlink="http://www.w3.org/1999/xlink" x="0px" y="0px"
	 viewBox="0 0 134.4 134.4" style="enable-background:new 0 0 134.4 134.4;" xml:space="preserve">
<g>
	<path d="M67.2,33.979c-21,0-37.8,16.821-37.8,37.846s16.8,37.846,37.8,37.846S105,92.851,105,71.826S88.2,33.979,67.2,33.979z
		 M67.2,101.682c-16.38,0-29.4-13.457-29.4-29.436c0-16.4,13.44-29.436,29.4-29.436c16.38,0,29.4,13.457,29.4,29.436
		S83.58,101.682,67.2,101.682z"/>
	<path d="M121.8,29.354H97.86l-3.78-9.251c-1.68-4.205-7.14-7.569-12.18-7.569H52.08c-5.04,0-10.08,3.364-12.6,7.99l-3.36,8.831
		H12.6C5.46,29.354,0,34.82,0,41.549v68.544c0,6.308,5.46,11.774,12.6,11.774h109.2c6.72,0,12.6-5.467,12.6-11.774V41.549
		C134.4,34.82,128.94,29.354,121.8,29.354z M126,110.093c0,2.103-2.1,3.364-4.2,3.364H12.6c-2.1,0-4.2-1.262-4.2-3.364V41.549
		c0-2.103,1.68-3.785,4.2-3.785h26.46c1.68,0,3.36-0.841,3.78-2.523l4.62-11.354c0.84-1.262,2.94-2.944,4.62-2.944H81.9
		c1.68,0,4.2,1.682,4.62,2.523l4.62,11.354c0.84,2.103,2.52,2.944,4.2,2.944h26.46c2.1,0,4.2,1.682,4.2,3.785V110.093z"/>
	<path d="M16.8,39.866c-3.36,0-6.3,2.944-6.3,6.308s2.94,6.308,6.3,6.308s6.3-2.944,6.3-6.308S20.16,39.866,16.8,39.866z
		 M16.8,48.277c-1.26,0-2.1-0.841-2.1-2.103c0-1.262,0.84-2.103,2.1-2.103c1.26,0,2.1,0.841,2.1,2.103
		C18.9,47.436,18.06,48.277,16.8,48.277z"/>
	<path d="M67.2,55.005c-9.24,0-16.8,7.569-16.8,16.821s7.56,16.821,16.8,16.821S84,81.077,84,71.826S76.44,55.005,67.2,55.005z
		 M67.2,80.236c-4.62,0-8.4-3.785-8.4-8.41c0-4.626,3.78-8.41,8.4-8.41s8.4,3.785,8.4,8.41C75.6,76.451,71.82,80.236,67.2,80.236z"
		/>
</g>
<g>
</g>
<g>
</g>
<g>
</g>
<g>
</g>
<g>
</g>
<g>
</g>
<g>
</g>
<g>
</g>
<g>
</g>
<g>
</g>
<g>
</g>
<g>
</g>
<g>
</g>
<g>
</g>
<g>
</g>
</svg>
